<?xml version="1.0" encoding="UTF-8"?>
<svg xmlns="http://www.w3.org/2000/svg" viewBox="0 0 894.87 894.72">
  <defs>
    <linearGradient id="gradient-blue-to-white" x1="79.13" y1="736.66" x2="305.26" y2="366.13" gradientUnits="userSpaceOnUse">
      <stop offset="0.06" stop-color="#3790cf"/>
      <stop offset="1" stop-color="#fff"/>
    </linearGradient>
    <linearGradient id="gradient-white-to-blue" x1="478.04" y1="434.26" x2="728.15" y2="184.15" gradientUnits="userSpaceOnUse">
      <stop offset="0" stop-color="#fff"/>
      <stop offset="1" stop-color="#3790cf"/>
    </linearGradient>
  </defs>
  <path fill="#1d4680" d="M626.34,47.32c89.62,98.94,178.34,199.43,266.85,299.86l1.68,4.67-134.78,451.19-399.3,84.04-50.1,7.65L0,541.94,136.75,92.12c1.52-2.96,10.06-5.44,13.38-6.2,129.96-29.74,264.1-52.88,394.56-77.92,12.79-2.45,30.59-10.86,42.53-7.01,13.17,15.18,25.67,31.48,39.11,46.33ZM851.26,347.81c3.55-5.2-37.85-45.88-43.08-51.94-66.14-76.83-131.88-155.54-200.09-230.37-4.8-5.27-20.88-26.04-26.92-21.15l-112.78,380.26,382.86-76.8ZM163.35,143.74c-2.49-2.77-10.84-16.97-14.91-13.82L30.21,527.01l283.42,318.58,120.24-392.54c-89.99-103.15-179.15-207.69-270.52-309.31Z"/>
  <path fill="url(#gradient-blue-to-white)" d="M163.35,143.74c91.37,101.63,180.53,206.16,270.52,309.31l-120.24,392.54L30.21,527.01l118.23-397.09c4.07-3.15,12.42,11.05,14.91,13.82Z"/>
  <path fill="url(#gradient-white-to-blue)" d="M851.26,347.81l-382.86,76.8,112.78-380.26c6.04-4.89,22.12,15.88,26.92,21.15,68.21,74.83,133.95,153.54,200.09,230.37,5.22,6.07,46.63,46.74,43.08,51.94Z"/>
</svg>